<svg viewBox="401.94554 110.26121212121211 721.6857200000001 112.99757575757575" fill="none" xmlns="http://www.w3.org/2000/svg" style="max-height: 500px" width="721.6857200000001" height="112.99757575757575">
<path fill="url(#paint0_linear_1929_7025)" d="M333.02 166.219C332.72 74.8591 258.33 0.619141 166.9 0.619141C75.2897 0.619141 0.759766 75.1491 0.759766 166.759C0.759766 258.379 75.2897 332.899 166.9 332.899C258.51 332.899 333.04 258.369 333.04 166.759C333.04 166.669 333.03 166.579 333.03 166.489C333.03 166.399 333.04 166.309 333.04 166.219H333.02ZM166.9 311.719C86.9798 311.719 21.9498 246.699 21.9498 166.769C21.9498 163.559 22.2298 160.419 22.4298 157.259C27.2098 110.369 66.9198 73.6691 115.05 73.6691C143.97 73.6691 169.85 86.9291 186.94 107.679C180.64 105.539 173.91 104.319 166.89 104.319C132.64 104.319 104.77 132.039 104.47 166.229H104.44C104.44 166.319 104.45 166.409 104.45 166.499C104.45 166.589 104.44 166.679 104.44 166.769C104.44 169.019 104.57 171.229 104.8 173.419C108.54 233.079 158.14 280.519 218.73 280.519C237.34 280.519 254.87 275.959 270.41 268.029C244.1 294.939 207.44 311.719 166.9 311.719ZM208.16 166.769C208.16 189.519 189.66 208.029 166.9 208.029C144.34 208.029 126 189.819 125.7 167.319C125.7 167.069 125.66 166.839 125.66 166.589C125.76 143.919 144.21 125.519 166.9 125.519C189.65 125.509 208.16 144.019 208.16 166.769ZM218.75 259.319C190.22 259.319 164.68 246.389 147.59 226.119C153.68 228.109 160.16 229.209 166.91 229.209C201.34 229.209 229.36 201.199 229.36 166.759C229.36 103.729 178.08 52.4591 115.06 52.4591C96.8098 52.4591 79.5998 56.8691 64.2798 64.5091C90.5398 38.1491 126.85 21.7991 166.91 21.7991C246.74 21.7991 311.7 86.6791 311.85 166.479C311.69 217.699 270 259.319 218.75 259.319Z"/>
<path fill="black" d="M914.188 183.599C915.058 183.169 915.928 182.749 916.778 182.239C916.888 182.179 916.998 182.089 917.098 182.019C919.458 180.549 921.738 178.769 923.998 176.569C924.418 176.139 924.828 175.709 925.238 175.239C925.438 175.009 925.618 174.769 925.808 174.539C926.818 173.299 927.778 171.919 928.698 170.439C931.638 165.399 933.188 159.569 933.188 152.849C933.188 145.549 931.478 139.249 928.068 133.939C924.658 128.639 919.748 124.559 913.358 121.719C906.968 118.879 899.458 117.459 890.828 117.459H849.898V216.959H868.378V187.959H889.908C891.028 187.959 892.068 187.919 893.128 187.889C896.988 205.579 912.728 218.879 931.558 218.879V201.899C921.208 201.899 912.558 194.799 910.008 185.239C910.378 185.109 910.798 185.059 911.168 184.919C912.178 184.539 913.188 184.079 914.188 183.599ZM908.328 167.549C904.158 171.009 898.048 172.739 889.988 172.739H868.378V133.079H889.988C898.038 133.079 904.148 134.779 908.328 138.199C912.498 141.609 914.578 146.489 914.578 152.839C914.578 159.189 912.488 164.089 908.328 167.549Z"/>
<path fill="black" d="M425.189 174.019H473.229V158.809H425.189V132.939H479.339V117.449H406.709V216.939H481.329V201.449H425.189V174.019Z"/>
<path fill="black" d="M596.469 117.449H576.429L551.269 152.839L525.829 117.449H504.929L539.899 166.199L502.939 216.939H523.979L550.699 179.129L577.709 216.939H599.029L561.649 165.489L596.469 117.449Z"/>
<path fill="black" d="M687.939 121.709C681.539 118.869 674.029 117.449 665.409 117.449H624.479V216.939H642.959V188.229H665.419C674.039 188.229 681.549 186.799 687.949 183.959C694.349 181.119 699.249 177.019 702.659 171.669C706.069 166.319 707.779 160.039 707.779 152.839C707.779 145.539 706.069 139.239 702.659 133.929C699.229 128.629 694.329 124.549 687.939 121.709ZM682.889 167.479C678.719 170.889 672.609 172.589 664.549 172.589H642.939V133.079H664.549C672.599 133.079 678.709 134.779 682.889 138.199C687.059 141.609 689.139 146.489 689.139 152.839C689.139 159.189 687.059 164.069 682.889 167.479Z"/>
<path fill="black" d="M758.939 174.019H806.979V158.809H758.939V132.939H813.089V117.449H740.459V216.939H815.079V201.449H758.939V174.019Z"/>
<path fill="black" d="M986.5 117.449H968.02V216.939H986.5V117.449Z"/>
<path fill="black" d="M1076.47 117.449H1058.28L1013.5 216.939H1032.55L1042.36 193.909H1092.11L1102.06 216.939H1121.39L1076.47 117.449ZM1048.61 179.419L1067.23 135.929L1085.99 179.419H1048.61Z"/>
<defs>
<linearGradient gradientUnits="userSpaceOnUse" y2="49.3485" x2="284.319" y1="284.194" x1="49.4741" id="paint0_linear_1929_7025">
<stop stop-color="#272E5F"/>
<stop stop-color="#007BAF" offset="1"/>
</linearGradient>
</defs>
</svg>